<svg xmlns="http://www.w3.org/2000/svg" width="1200" height="660" viewBox="0 0 1200 660" role="img" aria-labelledby="title description">
  <title id="title">VKF spectral-norm optimizer policy landscape</title>
  <desc id="description">Mean native execution time plus and minus one standard deviation for all 256 policies, sorted slowest to fastest.</desc>
  <style>
    :root { color-scheme: light dark; }
    .background { fill: #ffffff; }
    .text { fill: #172033; font: 16px system-ui, sans-serif; }
    .muted { fill: #586174; font: 14px system-ui, sans-serif; }
    .grid { stroke: #d8dde8; stroke-width: 1; }
    .frame { fill: none; stroke: #8c96aa; stroke-width: 1; }
    .band { fill: #3478d4; opacity: .15; }
    .mean { fill: none; stroke: #1261a8; stroke-width: 3; }
    .upper { fill: none; stroke: #d46b28; stroke-width: 1.5; }
    .lower { fill: none; stroke: #2f8f5b; stroke-width: 1.5; }
    .selected { fill: #9b4dcc; stroke: #172033; stroke-width: 1.5; }
    .default { fill: #d44444; stroke: #172033; stroke-width: 1.5; }
    @media (prefers-color-scheme: dark) {
      .background { fill: #0d1117; }
      .text { fill: #e6edf3; }
      .muted { fill: #a6b1c2; }
      .grid { stroke: #30363d; }
      .frame { stroke: #6e7681; }
      .mean { stroke: #58a6ff; }
      .upper { stroke: #f2a65a; }
      .lower { stroke: #56d18b; }
      .selected, .default { stroke: #e6edf3; }
    }
  </style>
  <rect class="background" width="1200" height="660"/>
  <text class="text" x="90" y="30" font-size="22" font-weight="600">VKF spectral-norm policy landscape</text>
  <text class="muted" x="90" y="52">256 policies · 18 distinct binaries · 200 timed runs per distinct binary · slowest → fastest</text>
  <line class="grid" x1="90" y1="582.00" x2="1164" y2="582.00"/><text class="muted" x="78" y="587.00" text-anchor="end">3</text>
  <line class="grid" x1="90" y1="495.67" x2="1164" y2="495.67"/><text class="muted" x="78" y="500.67" text-anchor="end">8</text>
  <line class="grid" x1="90" y1="409.33" x2="1164" y2="409.33"/><text class="muted" x="78" y="414.33" text-anchor="end">12</text>
  <line class="grid" x1="90" y1="323.00" x2="1164" y2="323.00"/><text class="muted" x="78" y="328.00" text-anchor="end">16</text>
  <line class="grid" x1="90" y1="236.67" x2="1164" y2="236.67"/><text class="muted" x="78" y="241.67" text-anchor="end">21</text>
  <line class="grid" x1="90" y1="150.33" x2="1164" y2="150.33"/><text class="muted" x="78" y="155.33" text-anchor="end">25</text>
  <line class="grid" x1="90" y1="64.00" x2="1164" y2="64.00"/><text class="muted" x="78" y="69.00" text-anchor="end">30</text>
  <text class="muted" x="90.00" y="610" text-anchor="start">1</text>
  <text class="muted" x="355.34" y="610" text-anchor="middle">64</text>
  <text class="muted" x="624.89" y="610" text-anchor="middle">128</text>
  <text class="muted" x="894.45" y="610" text-anchor="middle">192</text>
  <text class="muted" x="1164.00" y="610" text-anchor="end">256</text>
  <rect class="frame" x="90" y="64" width="1074" height="518"/>
  <path class="band" d="M90.00,87.55 L94.21,87.55 L98.42,87.55 L102.64,87.55 L106.85,87.55 L111.06,87.55 L115.27,87.55 L119.48,87.55 L123.69,87.55 L127.91,87.55 L132.12,87.55 L136.33,87.55 L140.54,87.55 L144.75,87.55 L148.96,87.55 L153.18,87.55 L157.39,87.55 L161.60,87.55 L165.81,87.55 L170.02,87.55 L174.24,87.55 L178.45,87.55 L182.66,87.55 L186.87,87.55 L191.08,87.55 L195.29,87.55 L199.51,87.55 L203.72,87.55 L207.93,87.55 L212.14,87.55 L216.35,87.55 L220.56,87.55 L224.78,87.66 L228.99,87.66 L233.20,87.66 L237.41,87.66 L241.62,87.66 L245.84,87.66 L250.05,87.66 L254.26,87.66 L258.47,87.66 L262.68,87.66 L266.89,87.66 L271.11,87.66 L275.32,87.66 L279.53,87.66 L283.74,87.66 L287.95,87.66 L292.16,87.66 L296.38,87.66 L300.59,87.66 L304.80,87.66 L309.01,87.66 L313.22,87.66 L317.44,87.66 L321.65,87.66 L325.86,87.66 L330.07,87.66 L334.28,87.66 L338.49,87.66 L342.71,87.66 L346.92,87.66 L351.13,87.66 L355.34,87.66 L359.55,109.68 L363.76,109.68 L367.98,109.68 L372.19,109.68 L376.40,109.68 L380.61,109.68 L384.82,109.68 L389.04,109.68 L393.25,109.68 L397.46,109.68 L401.67,109.68 L405.88,109.68 L410.09,109.68 L414.31,109.68 L418.52,109.68 L422.73,109.68 L426.94,109.68 L431.15,109.68 L435.36,109.68 L439.58,109.68 L443.79,109.68 L448.00,109.68 L452.21,109.68 L456.42,109.68 L460.64,109.68 L464.85,109.68 L469.06,109.68 L473.27,109.68 L477.48,109.68 L481.69,109.68 L485.91,109.68 L490.12,109.68 L494.33,124.56 L498.54,124.56 L502.75,124.56 L506.96,124.56 L511.18,124.56 L515.39,124.56 L519.60,124.56 L523.81,124.56 L528.02,124.56 L532.24,124.56 L536.45,124.56 L540.66,124.56 L544.87,124.56 L549.08,124.56 L553.29,124.56 L557.51,124.56 L561.72,124.56 L565.93,124.56 L570.14,124.56 L574.35,124.56 L578.56,124.56 L582.78,124.56 L586.99,124.56 L591.20,124.56 L595.41,124.56 L599.62,124.56 L603.84,124.56 L608.05,124.56 L612.26,124.56 L616.47,124.56 L620.68,124.56 L624.89,124.56 L629.11,128.37 L633.32,128.37 L637.53,128.37 L641.74,128.37 L645.95,128.37 L650.16,128.37 L654.38,128.37 L658.59,128.37 L662.80,140.38 L667.01,140.38 L671.22,140.38 L675.44,140.38 L679.65,140.38 L683.86,140.38 L688.07,140.38 L692.28,140.38 L696.49,133.54 L700.71,133.54 L704.92,133.54 L709.13,133.54 L713.34,133.54 L717.55,133.54 L721.76,133.54 L725.98,133.54 L730.19,146.02 L734.40,146.02 L738.61,146.02 L742.82,146.02 L747.04,146.02 L751.25,146.02 L755.46,146.02 L759.67,146.02 L763.88,232.42 L768.09,232.42 L772.31,232.42 L776.52,232.42 L780.73,232.42 L784.94,232.42 L789.15,232.42 L793.36,232.42 L797.58,241.85 L801.79,241.85 L806.00,241.85 L810.21,241.85 L814.42,241.85 L818.64,241.85 L822.85,241.85 L827.06,241.85 L831.27,242.65 L835.48,242.65 L839.69,242.65 L843.91,242.65 L848.12,242.65 L852.33,242.65 L856.54,242.65 L860.75,242.65 L864.96,244.18 L869.18,244.18 L873.39,244.18 L877.60,244.18 L881.81,244.18 L886.02,244.18 L890.24,244.18 L894.45,244.18 L898.66,399.44 L902.87,399.44 L907.08,399.44 L911.29,399.44 L915.51,399.44 L919.72,399.44 L923.93,399.44 L928.14,399.44 L932.35,402.36 L936.56,402.36 L940.78,402.36 L944.99,402.36 L949.20,402.36 L953.41,402.36 L957.62,402.36 L961.84,402.36 L966.05,412.32 L970.26,412.32 L974.47,412.32 L978.68,412.32 L982.89,412.32 L987.11,412.32 L991.32,412.32 L995.53,412.32 L999.74,413.09 L1003.95,413.09 L1008.16,413.09 L1012.38,413.09 L1016.59,413.09 L1020.80,413.09 L1025.01,413.09 L1029.22,413.09 L1033.44,413.09 L1037.65,413.09 L1041.86,413.09 L1046.07,413.09 L1050.28,413.09 L1054.49,413.09 L1058.71,413.09 L1062.92,413.09 L1067.13,400.26 L1071.34,400.26 L1075.55,400.26 L1079.76,400.26 L1083.98,400.26 L1088.19,400.26 L1092.40,400.26 L1096.61,400.26 L1100.82,412.24 L1105.04,412.24 L1109.25,412.24 L1113.46,412.24 L1117.67,412.24 L1121.88,412.24 L1126.09,412.24 L1130.31,412.24 L1134.52,412.24 L1138.73,412.24 L1142.94,412.24 L1147.15,412.24 L1151.36,412.24 L1155.58,412.24 L1159.79,412.24 L1164.00,412.24 L1164.00,547.50 L1159.79,547.50 L1155.58,547.50 L1151.36,547.50 L1147.15,547.50 L1142.94,547.50 L1138.73,547.50 L1134.52,547.50 L1130.31,547.50 L1126.09,547.50 L1121.88,547.50 L1117.67,547.50 L1113.46,547.50 L1109.25,547.50 L1105.04,547.50 L1100.82,547.50 L1096.61,558.45 L1092.40,558.45 L1088.19,558.45 L1083.98,558.45 L1079.76,558.45 L1075.55,558.45 L1071.34,558.45 L1067.13,558.45 L1062.92,542.95 L1058.71,542.95 L1054.49,542.95 L1050.28,542.95 L1046.07,542.95 L1041.86,542.95 L1037.65,542.95 L1033.44,542.95 L1029.22,542.95 L1025.01,542.95 L1020.80,542.95 L1016.59,542.95 L1012.38,542.95 L1008.16,542.95 L1003.95,542.95 L999.74,542.95 L995.53,542.05 L991.32,542.05 L987.11,542.05 L982.89,542.05 L978.68,542.05 L974.47,542.05 L970.26,542.05 L966.05,542.05 L961.84,549.75 L957.62,549.75 L953.41,549.75 L949.20,549.75 L944.99,549.75 L940.78,549.75 L936.56,549.75 L932.35,549.75 L928.14,545.33 L923.93,545.33 L919.72,545.33 L915.51,545.33 L911.29,545.33 L907.08,545.33 L902.87,545.33 L898.66,545.33 L894.45,410.75 L890.24,410.75 L886.02,410.75 L881.81,410.75 L877.60,410.75 L873.39,410.75 L869.18,410.75 L864.96,410.75 L860.75,411.14 L856.54,411.14 L852.33,411.14 L848.12,411.14 L843.91,411.14 L839.69,411.14 L835.48,411.14 L831.27,411.14 L827.06,411.89 L822.85,411.89 L818.64,411.89 L814.42,411.89 L810.21,411.89 L806.00,411.89 L801.79,411.89 L797.58,411.89 L793.36,412.73 L789.15,412.73 L784.94,412.73 L780.73,412.73 L776.52,412.73 L772.31,412.73 L768.09,412.73 L763.88,412.73 L759.67,382.49 L755.46,382.49 L751.25,382.49 L747.04,382.49 L742.82,382.49 L738.61,382.49 L734.40,382.49 L730.19,382.49 L725.98,387.69 L721.76,387.69 L717.55,387.69 L713.34,387.69 L709.13,387.69 L704.92,387.69 L700.71,387.69 L696.49,387.69 L692.28,364.54 L688.07,364.54 L683.86,364.54 L679.65,364.54 L675.44,364.54 L671.22,364.54 L667.01,364.54 L662.80,364.54 L658.59,367.16 L654.38,367.16 L650.16,367.16 L645.95,367.16 L641.74,367.16 L637.53,367.16 L633.32,367.16 L629.11,367.16 L624.89,329.63 L620.68,329.63 L616.47,329.63 L612.26,329.63 L608.05,329.63 L603.84,329.63 L599.62,329.63 L595.41,329.63 L591.20,329.63 L586.99,329.63 L582.78,329.63 L578.56,329.63 L574.35,329.63 L570.14,329.63 L565.93,329.63 L561.72,329.63 L557.51,329.63 L553.29,329.63 L549.08,329.63 L544.87,329.63 L540.66,329.63 L536.45,329.63 L532.24,329.63 L528.02,329.63 L523.81,329.63 L519.60,329.63 L515.39,329.63 L511.18,329.63 L506.96,329.63 L502.75,329.63 L498.54,329.63 L494.33,329.63 L490.12,328.32 L485.91,328.32 L481.69,328.32 L477.48,328.32 L473.27,328.32 L469.06,328.32 L464.85,328.32 L460.64,328.32 L456.42,328.32 L452.21,328.32 L448.00,328.32 L443.79,328.32 L439.58,328.32 L435.36,328.32 L431.15,328.32 L426.94,328.32 L422.73,328.32 L418.52,328.32 L414.31,328.32 L410.09,328.32 L405.88,328.32 L401.67,328.32 L397.46,328.32 L393.25,328.32 L389.04,328.32 L384.82,328.32 L380.61,328.32 L376.40,328.32 L372.19,328.32 L367.98,328.32 L363.76,328.32 L359.55,328.32 L355.34,332.57 L351.13,332.57 L346.92,332.57 L342.71,332.57 L338.49,332.57 L334.28,332.57 L330.07,332.57 L325.86,332.57 L321.65,332.57 L317.44,332.57 L313.22,332.57 L309.01,332.57 L304.80,332.57 L300.59,332.57 L296.38,332.57 L292.16,332.57 L287.95,332.57 L283.74,332.57 L279.53,332.57 L275.32,332.57 L271.11,332.57 L266.89,332.57 L262.68,332.57 L258.47,332.57 L254.26,332.57 L250.05,332.57 L245.84,332.57 L241.62,332.57 L237.41,332.57 L233.20,332.57 L228.99,332.57 L224.78,332.57 L220.56,320.07 L216.35,320.07 L212.14,320.07 L207.93,320.07 L203.72,320.07 L199.51,320.07 L195.29,320.07 L191.08,320.07 L186.87,320.07 L182.66,320.07 L178.45,320.07 L174.24,320.07 L170.02,320.07 L165.81,320.07 L161.60,320.07 L157.39,320.07 L153.18,320.07 L148.96,320.07 L144.75,320.07 L140.54,320.07 L136.33,320.07 L132.12,320.07 L127.91,320.07 L123.69,320.07 L119.48,320.07 L115.27,320.07 L111.06,320.07 L106.85,320.07 L102.64,320.07 L98.42,320.07 L94.21,320.07 L90.00,320.07 Z"/>
  <path class="upper" d="M90.00,87.55 L94.21,87.55 L98.42,87.55 L102.64,87.55 L106.85,87.55 L111.06,87.55 L115.27,87.55 L119.48,87.55 L123.69,87.55 L127.91,87.55 L132.12,87.55 L136.33,87.55 L140.54,87.55 L144.75,87.55 L148.96,87.55 L153.18,87.55 L157.39,87.55 L161.60,87.55 L165.81,87.55 L170.02,87.55 L174.24,87.55 L178.45,87.55 L182.66,87.55 L186.87,87.55 L191.08,87.55 L195.29,87.55 L199.51,87.55 L203.72,87.55 L207.93,87.55 L212.14,87.55 L216.35,87.55 L220.56,87.55 L224.78,87.66 L228.99,87.66 L233.20,87.66 L237.41,87.66 L241.62,87.66 L245.84,87.66 L250.05,87.66 L254.26,87.66 L258.47,87.66 L262.68,87.66 L266.89,87.66 L271.11,87.66 L275.32,87.66 L279.53,87.66 L283.74,87.66 L287.95,87.66 L292.16,87.66 L296.38,87.66 L300.59,87.66 L304.80,87.66 L309.01,87.66 L313.22,87.66 L317.44,87.66 L321.65,87.66 L325.86,87.66 L330.07,87.66 L334.28,87.66 L338.49,87.66 L342.71,87.66 L346.92,87.66 L351.13,87.66 L355.34,87.66 L359.55,109.68 L363.76,109.68 L367.98,109.68 L372.19,109.68 L376.40,109.68 L380.61,109.68 L384.82,109.68 L389.04,109.68 L393.25,109.68 L397.46,109.68 L401.67,109.68 L405.88,109.68 L410.09,109.68 L414.31,109.68 L418.52,109.68 L422.73,109.68 L426.94,109.68 L431.15,109.68 L435.36,109.68 L439.58,109.68 L443.79,109.68 L448.00,109.68 L452.21,109.68 L456.42,109.68 L460.64,109.68 L464.85,109.68 L469.06,109.68 L473.27,109.68 L477.48,109.68 L481.69,109.68 L485.91,109.68 L490.12,109.68 L494.33,124.56 L498.54,124.56 L502.75,124.56 L506.96,124.56 L511.18,124.56 L515.39,124.56 L519.60,124.56 L523.81,124.56 L528.02,124.56 L532.24,124.56 L536.45,124.56 L540.66,124.56 L544.87,124.56 L549.08,124.56 L553.29,124.56 L557.51,124.56 L561.72,124.56 L565.93,124.56 L570.14,124.56 L574.35,124.56 L578.56,124.56 L582.78,124.56 L586.99,124.56 L591.20,124.56 L595.41,124.56 L599.62,124.56 L603.84,124.56 L608.05,124.56 L612.26,124.56 L616.47,124.56 L620.68,124.56 L624.89,124.56 L629.11,128.37 L633.32,128.37 L637.53,128.37 L641.74,128.37 L645.95,128.37 L650.16,128.37 L654.38,128.37 L658.59,128.37 L662.80,140.38 L667.01,140.38 L671.22,140.38 L675.44,140.38 L679.65,140.38 L683.86,140.38 L688.07,140.38 L692.28,140.38 L696.49,133.54 L700.71,133.54 L704.92,133.54 L709.13,133.54 L713.34,133.54 L717.55,133.54 L721.76,133.54 L725.98,133.54 L730.19,146.02 L734.40,146.02 L738.61,146.02 L742.82,146.02 L747.04,146.02 L751.25,146.02 L755.46,146.02 L759.67,146.02 L763.88,232.42 L768.09,232.42 L772.31,232.42 L776.52,232.42 L780.73,232.42 L784.94,232.42 L789.15,232.42 L793.36,232.42 L797.58,241.85 L801.79,241.85 L806.00,241.85 L810.21,241.85 L814.42,241.85 L818.64,241.85 L822.85,241.85 L827.06,241.85 L831.27,242.65 L835.48,242.65 L839.69,242.65 L843.91,242.65 L848.12,242.65 L852.33,242.65 L856.54,242.65 L860.75,242.65 L864.96,244.18 L869.18,244.18 L873.39,244.18 L877.60,244.18 L881.81,244.18 L886.02,244.18 L890.24,244.18 L894.45,244.18 L898.66,399.44 L902.87,399.44 L907.08,399.44 L911.29,399.44 L915.51,399.44 L919.72,399.44 L923.93,399.44 L928.14,399.44 L932.35,402.36 L936.56,402.36 L940.78,402.36 L944.99,402.36 L949.20,402.36 L953.41,402.36 L957.62,402.36 L961.84,402.36 L966.05,412.32 L970.26,412.32 L974.47,412.32 L978.68,412.32 L982.89,412.32 L987.11,412.32 L991.32,412.32 L995.53,412.32 L999.74,413.09 L1003.95,413.09 L1008.16,413.09 L1012.38,413.09 L1016.59,413.09 L1020.80,413.09 L1025.01,413.09 L1029.22,413.09 L1033.44,413.09 L1037.65,413.09 L1041.86,413.09 L1046.07,413.09 L1050.28,413.09 L1054.49,413.09 L1058.71,413.09 L1062.92,413.09 L1067.13,400.26 L1071.34,400.26 L1075.55,400.26 L1079.76,400.26 L1083.98,400.26 L1088.19,400.26 L1092.40,400.26 L1096.61,400.26 L1100.82,412.24 L1105.04,412.24 L1109.25,412.24 L1113.46,412.24 L1117.67,412.24 L1121.88,412.24 L1126.09,412.24 L1130.31,412.24 L1134.52,412.24 L1138.73,412.24 L1142.94,412.24 L1147.15,412.24 L1151.36,412.24 L1155.58,412.24 L1159.79,412.24 L1164.00,412.24"/>
  <path class="lower" d="M90.00,320.07 L94.21,320.07 L98.42,320.07 L102.64,320.07 L106.85,320.07 L111.06,320.07 L115.27,320.07 L119.48,320.07 L123.69,320.07 L127.91,320.07 L132.12,320.07 L136.33,320.07 L140.54,320.07 L144.75,320.07 L148.96,320.07 L153.18,320.07 L157.39,320.07 L161.60,320.07 L165.81,320.07 L170.02,320.07 L174.24,320.07 L178.45,320.07 L182.66,320.07 L186.87,320.07 L191.08,320.07 L195.29,320.07 L199.51,320.07 L203.72,320.07 L207.93,320.07 L212.14,320.07 L216.35,320.07 L220.56,320.07 L224.78,332.57 L228.99,332.57 L233.20,332.57 L237.41,332.57 L241.62,332.57 L245.84,332.57 L250.05,332.57 L254.26,332.57 L258.47,332.57 L262.68,332.57 L266.89,332.57 L271.11,332.57 L275.32,332.57 L279.53,332.57 L283.74,332.57 L287.95,332.57 L292.16,332.57 L296.38,332.57 L300.59,332.57 L304.80,332.57 L309.01,332.57 L313.22,332.57 L317.44,332.57 L321.65,332.57 L325.86,332.57 L330.07,332.57 L334.28,332.57 L338.49,332.57 L342.71,332.57 L346.92,332.57 L351.13,332.57 L355.34,332.57 L359.55,328.32 L363.76,328.32 L367.98,328.32 L372.19,328.32 L376.40,328.32 L380.61,328.32 L384.82,328.32 L389.04,328.32 L393.25,328.32 L397.46,328.32 L401.67,328.32 L405.88,328.32 L410.09,328.32 L414.31,328.32 L418.52,328.32 L422.73,328.32 L426.94,328.32 L431.15,328.32 L435.36,328.32 L439.58,328.32 L443.79,328.32 L448.00,328.32 L452.21,328.32 L456.42,328.32 L460.64,328.32 L464.85,328.32 L469.06,328.32 L473.27,328.32 L477.48,328.32 L481.69,328.32 L485.91,328.32 L490.12,328.32 L494.33,329.63 L498.54,329.63 L502.75,329.63 L506.96,329.63 L511.18,329.63 L515.39,329.63 L519.60,329.63 L523.81,329.63 L528.02,329.63 L532.24,329.63 L536.45,329.63 L540.66,329.63 L544.87,329.63 L549.08,329.63 L553.29,329.63 L557.51,329.63 L561.72,329.63 L565.93,329.63 L570.14,329.63 L574.35,329.63 L578.56,329.63 L582.78,329.63 L586.99,329.63 L591.20,329.63 L595.41,329.63 L599.62,329.63 L603.84,329.63 L608.05,329.63 L612.26,329.63 L616.47,329.63 L620.68,329.63 L624.89,329.63 L629.11,367.16 L633.32,367.16 L637.53,367.16 L641.74,367.16 L645.95,367.16 L650.16,367.16 L654.38,367.16 L658.59,367.16 L662.80,364.54 L667.01,364.54 L671.22,364.54 L675.44,364.54 L679.65,364.54 L683.86,364.54 L688.07,364.54 L692.28,364.54 L696.49,387.69 L700.71,387.69 L704.92,387.69 L709.13,387.69 L713.34,387.69 L717.55,387.69 L721.76,387.69 L725.98,387.69 L730.19,382.49 L734.40,382.49 L738.61,382.49 L742.82,382.49 L747.04,382.49 L751.25,382.49 L755.46,382.49 L759.67,382.49 L763.88,412.73 L768.09,412.73 L772.31,412.73 L776.52,412.73 L780.73,412.73 L784.94,412.73 L789.15,412.73 L793.36,412.73 L797.58,411.89 L801.79,411.89 L806.00,411.89 L810.21,411.89 L814.42,411.89 L818.64,411.89 L822.85,411.89 L827.06,411.89 L831.27,411.14 L835.48,411.14 L839.69,411.14 L843.91,411.14 L848.12,411.14 L852.33,411.14 L856.54,411.14 L860.75,411.14 L864.96,410.75 L869.18,410.75 L873.39,410.75 L877.60,410.75 L881.81,410.75 L886.02,410.75 L890.24,410.75 L894.45,410.75 L898.66,545.33 L902.87,545.33 L907.08,545.33 L911.29,545.33 L915.51,545.33 L919.72,545.33 L923.93,545.33 L928.14,545.33 L932.35,549.75 L936.56,549.75 L940.78,549.75 L944.99,549.75 L949.20,549.75 L953.41,549.75 L957.62,549.75 L961.84,549.75 L966.05,542.05 L970.26,542.05 L974.47,542.05 L978.68,542.05 L982.89,542.05 L987.11,542.05 L991.32,542.05 L995.53,542.05 L999.74,542.95 L1003.95,542.95 L1008.16,542.95 L1012.38,542.95 L1016.59,542.95 L1020.80,542.95 L1025.01,542.95 L1029.22,542.95 L1033.44,542.95 L1037.65,542.95 L1041.86,542.95 L1046.07,542.95 L1050.28,542.95 L1054.49,542.95 L1058.71,542.95 L1062.92,542.95 L1067.13,558.45 L1071.34,558.45 L1075.55,558.45 L1079.76,558.45 L1083.98,558.45 L1088.19,558.45 L1092.40,558.45 L1096.61,558.45 L1100.82,547.50 L1105.04,547.50 L1109.25,547.50 L1113.46,547.50 L1117.67,547.50 L1121.88,547.50 L1126.09,547.50 L1130.31,547.50 L1134.52,547.50 L1138.73,547.50 L1142.94,547.50 L1147.15,547.50 L1151.36,547.50 L1155.58,547.50 L1159.79,547.50 L1164.00,547.50"/>
  <path class="mean" d="M90.00,203.81 L94.21,203.81 L98.42,203.81 L102.64,203.81 L106.85,203.81 L111.06,203.81 L115.27,203.81 L119.48,203.81 L123.69,203.81 L127.91,203.81 L132.12,203.81 L136.33,203.81 L140.54,203.81 L144.75,203.81 L148.96,203.81 L153.18,203.81 L157.39,203.81 L161.60,203.81 L165.81,203.81 L170.02,203.81 L174.24,203.81 L178.45,203.81 L182.66,203.81 L186.87,203.81 L191.08,203.81 L195.29,203.81 L199.51,203.81 L203.72,203.81 L207.93,203.81 L212.14,203.81 L216.35,203.81 L220.56,203.81 L224.78,210.11 L228.99,210.11 L233.20,210.11 L237.41,210.11 L241.62,210.11 L245.84,210.11 L250.05,210.11 L254.26,210.11 L258.47,210.11 L262.68,210.11 L266.89,210.11 L271.11,210.11 L275.32,210.11 L279.53,210.11 L283.74,210.11 L287.95,210.11 L292.16,210.11 L296.38,210.11 L300.59,210.11 L304.80,210.11 L309.01,210.11 L313.22,210.11 L317.44,210.11 L321.65,210.11 L325.86,210.11 L330.07,210.11 L334.28,210.11 L338.49,210.11 L342.71,210.11 L346.92,210.11 L351.13,210.11 L355.34,210.11 L359.55,219.00 L363.76,219.00 L367.98,219.00 L372.19,219.00 L376.40,219.00 L380.61,219.00 L384.82,219.00 L389.04,219.00 L393.25,219.00 L397.46,219.00 L401.67,219.00 L405.88,219.00 L410.09,219.00 L414.31,219.00 L418.52,219.00 L422.73,219.00 L426.94,219.00 L431.15,219.00 L435.36,219.00 L439.58,219.00 L443.79,219.00 L448.00,219.00 L452.21,219.00 L456.42,219.00 L460.64,219.00 L464.85,219.00 L469.06,219.00 L473.27,219.00 L477.48,219.00 L481.69,219.00 L485.91,219.00 L490.12,219.00 L494.33,227.09 L498.54,227.09 L502.75,227.09 L506.96,227.09 L511.18,227.09 L515.39,227.09 L519.60,227.09 L523.81,227.09 L528.02,227.09 L532.24,227.09 L536.45,227.09 L540.66,227.09 L544.87,227.09 L549.08,227.09 L553.29,227.09 L557.51,227.09 L561.72,227.09 L565.93,227.09 L570.14,227.09 L574.35,227.09 L578.56,227.09 L582.78,227.09 L586.99,227.09 L591.20,227.09 L595.41,227.09 L599.62,227.09 L603.84,227.09 L608.05,227.09 L612.26,227.09 L616.47,227.09 L620.68,227.09 L624.89,227.09 L629.11,247.77 L633.32,247.77 L637.53,247.77 L641.74,247.77 L645.95,247.77 L650.16,247.77 L654.38,247.77 L658.59,247.77 L662.80,252.46 L667.01,252.46 L671.22,252.46 L675.44,252.46 L679.65,252.46 L683.86,252.46 L688.07,252.46 L692.28,252.46 L696.49,260.61 L700.71,260.61 L704.92,260.61 L709.13,260.61 L713.34,260.61 L717.55,260.61 L721.76,260.61 L725.98,260.61 L730.19,264.25 L734.40,264.25 L738.61,264.25 L742.82,264.25 L747.04,264.25 L751.25,264.25 L755.46,264.25 L759.67,264.25 L763.88,322.57 L768.09,322.57 L772.31,322.57 L776.52,322.57 L780.73,322.57 L784.94,322.57 L789.15,322.57 L793.36,322.57 L797.58,326.87 L801.79,326.87 L806.00,326.87 L810.21,326.87 L814.42,326.87 L818.64,326.87 L822.85,326.87 L827.06,326.87 L831.27,326.89 L835.48,326.89 L839.69,326.89 L843.91,326.89 L848.12,326.89 L852.33,326.89 L856.54,326.89 L860.75,326.89 L864.96,327.46 L869.18,327.46 L873.39,327.46 L877.60,327.46 L881.81,327.46 L886.02,327.46 L890.24,327.46 L894.45,327.46 L898.66,472.39 L902.87,472.39 L907.08,472.39 L911.29,472.39 L915.51,472.39 L919.72,472.39 L923.93,472.39 L928.14,472.39 L932.35,476.06 L936.56,476.06 L940.78,476.06 L944.99,476.06 L949.20,476.06 L953.41,476.06 L957.62,476.06 L961.84,476.06 L966.05,477.19 L970.26,477.19 L974.47,477.19 L978.68,477.19 L982.89,477.19 L987.11,477.19 L991.32,477.19 L995.53,477.19 L999.74,478.02 L1003.95,478.02 L1008.16,478.02 L1012.38,478.02 L1016.59,478.02 L1020.80,478.02 L1025.01,478.02 L1029.22,478.02 L1033.44,478.02 L1037.65,478.02 L1041.86,478.02 L1046.07,478.02 L1050.28,478.02 L1054.49,478.02 L1058.71,478.02 L1062.92,478.02 L1067.13,479.36 L1071.34,479.36 L1075.55,479.36 L1079.76,479.36 L1083.98,479.36 L1088.19,479.36 L1092.40,479.36 L1096.61,479.36 L1100.82,479.87 L1105.04,479.87 L1109.25,479.87 L1113.46,479.87 L1117.67,479.87 L1121.88,479.87 L1126.09,479.87 L1130.31,479.87 L1134.52,479.87 L1138.73,479.87 L1142.94,479.87 L1147.15,479.87 L1151.36,479.87 L1155.58,479.87 L1159.79,479.87 L1164.00,479.87"/>
  <circle class="default" cx="1100.82" cy="479.87" r="6"/>
  <circle class="selected" cx="1121.88" cy="479.87" r="7"/>
  <text class="muted" x="627" y="642" text-anchor="middle">Policy rank (slowest → fastest)</text>
  <text class="muted" x="22" y="323" text-anchor="middle" transform="rotate(-90 22 323)">Native execution time (ms)</text>
  <line class="mean" x1="765" y1="30" x2="800" y2="30"/><text class="muted" x="808" y="35">mean</text>
  <line class="upper" x1="870" y1="30" x2="905" y2="30"/><text class="muted" x="913" y="35">mean + std</text>
  <line class="lower" x1="1020" y1="30" x2="1055" y2="30"/><text class="muted" x="1063" y="35">mean − std</text>
  <text class="muted" x="1113.88" y="465.87" text-anchor="end">mask-8e 8.535 ms</text>
  <text class="muted" x="1092.82" y="503.87" text-anchor="end">mask-ff 8.535 ms</text>
</svg>
